# xmcd
#
# Track frame offsets: 
#        150
#        12614
#        26056
#        42688
#        58014
#        81928
#        97190
#        113115
#        136651
#
# Disc length: 2094 seconds
#
# Revision: 0
# Processed by: cddbd v1.5.2PL0 Copyright (c) Steve Scherf et al.
# Submitted via: ExactAudioCopy v1.0b1
#
DISCID=7c082c09
DTITLE=Delta Riders - Trouble
DYEAR=2000
DGENRE=Blues
TTITLE0=Trouble
TTITLE1=Jump Back
TTITLE2=Red Hot Sugar
TTITLE3=Outside Man
TTITLE4=What They Got
TTITLE5=Hip Shot
TTITLE6=Slam Bam Boom
TTITLE7=Bottle of Blooze
TTITLE8=Thru 2 U
EXTD=
EXTT0=
EXTT1=
EXTT2=
EXTT3=
EXTT4=
EXTT5=
EXTT6=
EXTT7=
EXTT8=
PLAYORDER=
